<svg width="24" height="21" viewBox="0 0 24 21" fill="none" xmlns="http://www.w3.org/2000/svg">
<path d="M7.46139 17.7205L6.9608 17.5395L6.53108 17.8537C6.03043 18.2197 5.18539 18.7399 4.17831 19.1778C3.29065 19.5625 2.29898 19.8784 1.32402 19.9718C1.53896 19.7065 1.81207 19.3348 2.08835 18.8809L2.09073 18.8769C2.60907 18.0164 3.12924 16.8434 3.2342 15.4898L3.26691 15.0681L2.98705 14.7509C1.7216 13.3166 1.00139 11.5911 1.00139 9.75C1.00139 5.10035 5.72122 1 12.0007 1C18.2802 1 23 5.10035 23 9.75C23 14.3996 18.2802 18.5 12.0007 18.5C10.3766 18.5 8.84186 18.2198 7.46139 17.7205Z" fill="#FDE100" stroke="black" stroke-width="2"/>
</svg>
