<svg width="488" height="292" viewBox="0 0 488 292" fill="none" xmlns="http://www.w3.org/2000/svg">
<g clip-path="url(#clip0_1_26)">
<path d="M373.956 289.072L374.388 288.689L373.947 288.316C367.81 283.126 364.101 274.939 365.073 267.003C366.045 259.064 372.073 251.786 379.837 250.11C387.606 248.434 396.449 253.092 398.793 260.638L399.769 260.534C401.107 245.442 402.645 229.862 410.578 217.145C417.751 205.646 430.175 197.423 443.621 195.953C457.068 194.483 471.223 200.04 479.597 210.647C487.971 221.254 490.016 236.678 484.159 248.838C479.841 257.805 471.867 264.509 463.44 269.998C436.532 287.373 404.32 294.554 372.609 290.269L373.956 289.072Z" fill="black" stroke="black"/>
<path d="M466.532 199.899C455.304 209.052 445.004 219.289 435.779 230.462C421.344 247.888 409.662 267.425 401.141 288.394C400.518 289.924 403 290.59 403.616 289.077C417.557 254.998 439.813 224.962 468.347 201.715C469.629 200.671 467.803 198.863 466.532 199.899Z" fill="#FDE100"/>
<mask id="path-3-inside-1_1_26" fill="white">
<path d="M157.095 287.262C165.676 280.005 170.889 268.541 169.522 257.381C168.155 246.22 159.688 235.96 148.706 233.59C137.724 231.22 125.205 237.781 121.869 248.518C120.034 227.817 117.918 206.25 106.922 188.621C96.9649 172.659 79.7192 161.238 61.0287 159.195C42.3383 157.152 22.6596 164.869 11.003 179.633C-0.653525 194.398 -3.50758 215.862 4.65636 232.813C10.6705 245.3 21.7505 254.593 33.3597 262.154C70.397 286.274 116.342 296.333 160.059 289.894"/>
</mask>
<path d="M157.095 287.262C165.676 280.005 170.889 268.541 169.522 257.381C168.155 246.22 159.688 235.96 148.706 233.59C137.724 231.22 125.205 237.781 121.869 248.518C120.034 227.817 117.918 206.25 106.922 188.621C96.9649 172.659 79.7192 161.238 61.0287 159.195C42.3383 157.152 22.6596 164.869 11.003 179.633C-0.653525 194.398 -3.50758 215.862 4.65636 232.813C10.6705 245.3 21.7505 254.593 33.3597 262.154C70.397 286.274 116.342 296.333 160.059 289.894" fill="black"/>
<path d="M121.869 248.518L120.873 248.606L122.824 248.815L121.869 248.518ZM106.922 188.621L107.77 188.092L107.77 188.092L106.922 188.621ZM4.65636 232.813L5.55732 232.379L5.55732 232.379L4.65636 232.813ZM33.3597 262.154L32.814 262.992L32.814 262.992L33.3597 262.154ZM157.741 288.026C166.544 280.581 171.928 268.798 170.514 257.259L168.529 257.502C169.85 268.284 164.809 279.429 156.449 286.499L157.741 288.026ZM170.514 257.259C169.102 245.725 160.362 235.083 148.917 232.613L148.495 234.568C159.015 236.838 167.208 246.715 168.529 257.502L170.514 257.259ZM148.917 232.613C137.48 230.145 124.419 236.941 120.915 248.221L122.824 248.815C125.991 238.621 137.968 232.296 148.495 234.568L148.917 232.613ZM122.866 248.429C121.033 227.77 118.914 205.956 107.77 188.092L106.073 189.151C116.923 206.543 119.034 227.865 120.873 248.606L122.866 248.429ZM107.77 188.092C97.6616 171.887 80.1519 160.279 61.1374 158.201L60.92 160.189C79.2864 162.197 96.2682 173.432 106.073 189.151L107.77 188.092ZM61.1374 158.201C42.1243 156.122 22.1002 163.963 10.2182 179.014L11.7879 180.253C23.2189 165.774 42.5522 158.181 60.92 160.189L61.1374 158.201ZM10.2182 179.014C-1.66263 194.062 -4.58317 215.934 3.75541 233.247L5.55732 232.379C-2.432 215.791 0.355582 194.733 11.7879 180.253L10.2182 179.014ZM3.75541 233.247C9.88943 245.983 21.156 255.399 32.814 262.992L33.9054 261.316C22.3451 253.787 11.4515 244.617 5.55732 232.379L3.75541 233.247ZM32.814 262.992C70.0555 287.245 116.246 297.358 160.204 290.884L159.913 288.905C116.437 295.309 70.7384 285.303 33.9054 261.316L32.814 262.992Z" fill="black" mask="url(#path-3-inside-1_1_26)"/>
<path d="M29.4856 165.296C44.9075 177.868 59.0555 191.929 71.725 207.275C84.3964 222.606 95.5523 239.13 105.036 256.616C110.337 266.425 115.099 276.516 119.3 286.845C120.157 288.946 116.748 289.86 115.901 287.783C108.459 269.574 99.2513 252.138 88.4107 235.727C77.6229 219.375 65.2755 204.109 51.5422 190.143C43.7746 182.248 35.5791 174.786 26.9929 167.791C25.2329 166.357 27.7402 163.874 29.4856 165.296Z" fill="#FDE100"/>
<path d="M350.294 291.361H145.559V81.1207C145.559 36.3905 181.919 0 226.611 0H269.242C313.934 0 350.294 36.3905 350.294 81.1207V291.361Z" fill="black"/>
<path d="M307.164 81.1207V290.861H146.059L146.059 81.1207L146.059 81.1194C146.014 64.0863 151.403 47.4837 161.441 33.7289C161.813 33.2222 162.181 32.725 162.56 32.2344L162.562 32.2317C167.418 25.858 173.196 20.2448 179.706 15.5773L179.709 15.5751C180.076 15.308 180.445 15.0452 180.819 14.7821C186.267 11.0095 192.159 7.92548 198.362 5.60019L198.364 5.59949C198.733 5.45949 199.107 5.31985 199.481 5.1862C205.091 3.18222 210.908 1.80951 216.822 1.09346L216.829 1.09242C217.189 1.04325 217.56 1.00458 217.94 0.964955L217.941 0.964808C223.705 0.347994 229.519 0.347994 235.283 0.964809L235.284 0.964938L235.291 0.965697C235.668 1.00506 236.036 1.04356 236.398 1.09297L236.398 1.09303L236.406 1.09394C242.318 1.81008 248.133 3.18259 253.742 5.18611C254.115 5.31979 254.49 5.45948 254.86 5.59984L254.862 5.60049C260.989 7.8966 266.812 10.9348 272.202 14.6474L272.202 14.6477C272.576 14.9048 272.951 15.1678 273.32 15.4311C276.97 18.0384 280.398 20.9429 283.569 24.1153C286.112 26.6596 288.482 29.3717 290.662 32.2334L290.664 32.2361C291.042 32.7253 291.411 33.2226 291.781 33.7287C301.82 47.4835 307.209 64.0862 307.164 81.1194V81.1207Z" fill="#F4F900" stroke="#FDE100"/>
<path d="M294.483 197.328C299.439 197.328 303.457 193.307 303.457 188.346C303.457 183.385 299.439 179.364 294.483 179.364C289.526 179.364 285.508 183.385 285.508 188.346C285.508 193.307 289.526 197.328 294.483 197.328Z" fill="black"/>
<path d="M333.522 285.064H326.645L323.374 258.517L333.523 258.517L333.522 285.064Z" fill="#FFB8B8"/>
<path d="M321.733 283.097H334.995V291.454H313.383C313.383 290.357 313.599 289.27 314.018 288.256C314.438 287.242 315.053 286.321 315.829 285.545C316.604 284.769 317.525 284.153 318.538 283.733C319.551 283.313 320.637 283.097 321.733 283.097Z" fill="#2F2E41"/>
<path d="M367.738 285.064H360.861L357.59 258.517L367.739 258.517L367.738 285.064Z" fill="#FFB8B8"/>
<path d="M355.949 283.097H369.212V291.454H347.599C347.599 290.357 347.815 289.27 348.235 288.256C348.654 287.242 349.269 286.321 350.045 285.545C350.82 284.769 351.741 284.153 352.754 283.733C353.767 283.313 354.853 283.097 355.949 283.097Z" fill="#2F2E41"/>
<path d="M299.025 190.125C298.53 189.396 298.201 188.567 298.061 187.696C297.921 186.826 297.974 185.935 298.215 185.087C298.456 184.239 298.88 183.454 299.457 182.788C300.034 182.122 300.75 181.591 301.555 181.231L324.932 116.746L336.434 123.029L309.743 184.653C310.257 186.046 310.242 187.578 309.702 188.961C309.162 190.343 308.134 191.48 306.813 192.154C305.491 192.829 303.969 192.995 302.534 192.621C301.098 192.247 299.85 191.359 299.025 190.125Z" fill="#FFB8B8"/>
<path d="M364.225 202.242C363.461 201.804 362.802 201.203 362.295 200.482C361.788 199.761 361.445 198.938 361.291 198.07C361.136 197.202 361.173 196.31 361.4 195.458C361.627 194.606 362.037 193.814 362.603 193.139L355.361 124.924L368.451 125.523L371.461 192.621C372.533 193.647 373.191 195.031 373.311 196.51C373.432 197.99 373.005 199.462 372.113 200.648C371.222 201.834 369.926 202.651 368.472 202.945C367.018 203.239 365.507 202.989 364.225 202.242Z" fill="#FFB8B8"/>
<path d="M343.342 104.802C350.951 104.802 357.119 98.6289 357.119 91.0138C357.119 83.3988 350.951 77.2255 343.342 77.2255C335.733 77.2255 329.565 83.3988 329.565 91.0138C329.565 98.6289 335.733 104.802 343.342 104.802Z" fill="#FFB8B8"/>
<path d="M364.138 186.728H322.603L322.653 186.405C322.728 185.921 330.056 137.879 324.651 122.162C324.109 120.617 324.157 118.927 324.785 117.415C325.414 115.904 326.578 114.678 328.056 113.975C335.78 110.334 350.609 105.851 363.124 116.731C364.966 118.358 366.404 120.392 367.325 122.672C368.246 124.951 368.624 127.414 368.43 129.865L364.138 186.728Z" fill="#F4F900"/>
<path d="M330.581 144.979L311.881 141.182L320.646 120.394C321.171 118.381 322.472 116.658 324.264 115.603C326.056 114.548 328.193 114.248 330.206 114.768C332.219 115.288 333.944 116.586 335.002 118.377C336.06 120.168 336.365 122.306 335.851 124.322L330.581 144.979Z" fill="#F4F900"/>
<path d="M354.529 152.029L353.405 126.238C352.553 121.389 355.326 116.806 359.591 116.057C363.857 115.311 368.022 118.673 368.879 123.557L373.104 147.656L354.529 152.029Z" fill="#F4F900"/>
<path d="M362.756 183.641C369.439 209.115 370.168 241.503 368.365 276.831L359.39 275.709L343.123 208.342L334.149 276.831L324.052 276.27C321.036 239.202 318.099 207.379 322.93 186.448L362.756 183.641Z" fill="#2F2E41"/>
<path d="M352.42 101.67C349.85 104.41 345.077 102.939 344.742 99.1956C344.715 98.905 344.717 98.6125 344.747 98.3223C344.92 96.6642 345.877 95.1588 345.648 93.4081C345.596 92.9724 345.434 92.5572 345.177 92.2017C343.129 89.4569 338.321 93.4294 336.388 90.9446C335.203 89.421 336.596 87.0221 335.687 85.3192C334.486 83.0717 330.931 84.1804 328.701 82.9495C326.22 81.58 326.369 77.7706 328.002 75.4535C329.993 72.6277 333.485 71.1198 336.933 70.9025C340.382 70.6852 343.806 71.6181 347.026 72.8738C350.683 74.3005 354.311 76.2722 356.562 79.4912C359.299 83.4058 359.562 88.6687 358.193 93.2462C357.361 96.0307 354.518 99.4323 352.42 101.67Z" fill="#2F2E41"/>
<path d="M471.162 291.722H57.0385C56.8617 291.722 56.6923 291.651 56.5675 291.526C56.4427 291.4 56.3726 291.231 56.3726 291.054C56.3726 290.877 56.4427 290.707 56.5675 290.582C56.6923 290.456 56.8617 290.386 57.0385 290.385H471.162C471.339 290.386 471.508 290.456 471.633 290.582C471.758 290.707 471.828 290.877 471.828 291.054C471.828 291.231 471.758 291.4 471.633 291.526C471.508 291.651 471.339 291.722 471.162 291.722Z" fill="#3F3D56"/>
<path d="M263.071 230.45H190.152C189.192 230.455 188.268 230.079 187.585 229.404C186.901 228.729 186.513 227.81 186.506 226.849V63.9508C186.513 62.9897 186.901 62.0707 187.585 61.3955C188.268 60.7204 189.192 60.3441 190.152 60.3493H263.071C264.032 60.3441 264.955 60.7204 265.638 61.3955C266.322 62.0707 266.71 62.9897 266.717 63.9508V226.849C266.71 227.81 266.322 228.729 265.638 229.404C264.955 230.079 264.032 230.455 263.071 230.45Z" fill="black"/>
<path d="M266.717 113.058H186.506V114.181H266.717V113.058Z" fill="#F4F900"/>
<path d="M266.998 177.118H186.786V178.241H266.998V177.118Z" fill="#F4F900"/>
<path d="M212.869 60.3493H211.747V231.012H212.869V60.3493Z" fill="#F4F900"/>
<path d="M240.915 60.3493H239.793V231.012H240.915V60.3493Z" fill="#F4F900"/>
</g>
<defs>
<clipPath id="clip0_1_26">
<rect width="488" height="292" fill="white"/>
</clipPath>
</defs>
</svg>
