<svg width="200" height="200" viewBox="0 0 200 200" fill="none" xmlns="http://www.w3.org/2000/svg">
<path d="M106 60C106 53.3726 103.314 48 100 48C96.6863 48 94 53.3726 94 60C94 66.6274 96.6863 72 100 72C103.314 72 106 66.6274 106 60Z" fill="#FDE100"/>
<path d="M125.196 68.3591C128.51 62.6196 128.87 56.6237 126 54.9668C123.13 53.3099 118.118 56.6196 114.804 62.3591C111.49 68.0986 111.13 74.0946 114 75.7514C116.87 77.4083 121.883 74.0986 125.196 68.3591Z" fill="#FDE100"/>
<path d="M137.641 85.196C143.38 81.8823 146.69 76.8696 145.033 73.9999C143.376 71.1301 137.38 71.49 131.641 74.8037C125.901 78.1174 122.592 83.1301 124.249 85.9999C125.905 88.8696 131.901 88.5097 137.641 85.196Z" fill="#FDE100"/>
<path d="M140 106C146.627 106 152 103.314 152 100C152 96.6863 146.627 94 140 94C133.373 94 128 96.6863 128 100C128 103.314 133.373 106 140 106Z" fill="#FDE100"/>
<path d="M131.641 125.196C137.38 128.51 143.376 128.87 145.033 126C146.69 123.13 143.38 118.117 137.641 114.804C131.901 111.49 125.905 111.13 124.249 114C122.592 116.87 125.901 121.882 131.641 125.196Z" fill="#FDE100"/>
<path d="M114.804 137.641C118.117 143.38 123.13 146.69 126 145.033C128.87 143.376 128.51 137.38 125.196 131.641C121.882 125.901 116.87 122.592 114 124.249C111.13 125.905 111.49 131.901 114.804 137.641Z" fill="#FDE100"/>
<path d="M94 140C94 146.627 96.6863 152 100 152C103.314 152 106 146.627 106 140C106 133.373 103.314 128 100 128C96.6863 128 94 133.373 94 140Z" fill="#FDE100"/>
<path d="M74.8037 131.641C71.49 137.38 71.1301 143.376 73.9999 145.033C76.8696 146.69 81.8823 143.38 85.196 137.641C88.5098 131.901 88.8696 125.905 85.9999 124.249C83.1301 122.592 78.1174 125.901 74.8037 131.641Z" fill="#FDE100"/>
<path d="M62.3591 114.804C56.6196 118.118 53.3099 123.13 54.9668 126C56.6237 128.87 62.6196 128.51 68.3591 125.196C74.0986 121.883 77.4083 116.87 75.7514 114C74.0946 111.13 68.0986 111.49 62.3591 114.804Z" fill="#FDE100"/>
<path d="M60 94C53.3726 94 48 96.6863 48 100C48 103.314 53.3726 106 60 106C66.6274 106 72 103.314 72 100C72 96.6863 66.6274 94 60 94Z" fill="#FDE100"/>
<path d="M68.3591 74.804C62.6196 71.4903 56.6237 71.1304 54.9668 74.0001C53.3099 76.8699 56.6196 81.8826 62.3591 85.1963C68.0986 88.51 74.0946 88.8699 75.7514 86.0001C77.4083 83.1304 74.0986 78.1177 68.3591 74.804Z" fill="#FDE100"/>
<path d="M85.1963 62.3591C81.8826 56.6196 76.8699 53.3099 74.0001 54.9668C71.1304 56.6237 71.4902 62.6196 74.804 68.3591C78.1177 74.0986 83.1304 77.4083 86.0001 75.7514C88.8699 74.0946 88.51 68.0986 85.1963 62.3591Z" fill="#FDE100"/>
</svg>
